<mxfile host="app.diagrams.net" modified="2024-03-28T07:52:42.625Z" agent="Mozilla/5.0 (Windows NT 10.0; Win64; x64; rv:124.0) Gecko/20100101 Firefox/124.0" etag="3-hRT8qyqhuAPUiXU6yz" version="24.1.0" type="github">
  <diagram name="第 1 页" id="m7ZOV6HE41c2tK7prYmj">
    <mxGraphModel dx="858" dy="456" grid="0" gridSize="10" guides="1" tooltips="1" connect="1" arrows="1" fold="1" page="1" pageScale="1" pageWidth="827" pageHeight="1169" background="none" math="0" shadow="1">
      <root>
        <mxCell id="0" />
        <mxCell id="1" parent="0" />
        <mxCell id="oWNg2NpMSXeGEMVHe7Kw-49" value="" style="rounded=0;whiteSpace=wrap;html=1;dashed=1;fillColor=none;" parent="1" vertex="1">
          <mxGeometry x="22.5" y="290" width="135" height="130" as="geometry" />
        </mxCell>
        <mxCell id="oWNg2NpMSXeGEMVHe7Kw-20" value="研究背景及意义" style="rounded=0;whiteSpace=wrap;html=1;" parent="1" vertex="1">
          <mxGeometry x="30" y="300" width="120" height="30" as="geometry" />
        </mxCell>
        <mxCell id="oWNg2NpMSXeGEMVHe7Kw-54" style="edgeStyle=orthogonalEdgeStyle;rounded=0;orthogonalLoop=1;jettySize=auto;html=1;entryX=0.5;entryY=0;entryDx=0;entryDy=0;shape=flexArrow;" parent="1" source="oWNg2NpMSXeGEMVHe7Kw-10" target="oWNg2NpMSXeGEMVHe7Kw-49" edge="1">
          <mxGeometry relative="1" as="geometry" />
        </mxCell>
        <mxCell id="oWNg2NpMSXeGEMVHe7Kw-10" value="研究内容及理论基础" style="rounded=0;whiteSpace=wrap;html=1;fixDash=0;" parent="1" vertex="1">
          <mxGeometry x="30" y="220" width="120" height="30" as="geometry" />
        </mxCell>
        <mxCell id="oWNg2NpMSXeGEMVHe7Kw-55" style="edgeStyle=orthogonalEdgeStyle;rounded=0;orthogonalLoop=1;jettySize=auto;html=1;exitX=0.5;exitY=1;exitDx=0;exitDy=0;entryX=0.5;entryY=0;entryDx=0;entryDy=0;shape=flexArrow;" parent="1" source="oWNg2NpMSXeGEMVHe7Kw-11" target="oWNg2NpMSXeGEMVHe7Kw-50" edge="1">
          <mxGeometry relative="1" as="geometry" />
        </mxCell>
        <mxCell id="oWNg2NpMSXeGEMVHe7Kw-11" value="模型假设与构建" style="rounded=0;whiteSpace=wrap;html=1;fixDash=0;" parent="1" vertex="1">
          <mxGeometry x="190" y="220" width="120" height="30" as="geometry" />
        </mxCell>
        <mxCell id="oWNg2NpMSXeGEMVHe7Kw-12" value="" style="edgeStyle=orthogonalEdgeStyle;rounded=0;orthogonalLoop=1;jettySize=auto;html=1;fixDash=0;" parent="1" source="oWNg2NpMSXeGEMVHe7Kw-10" target="oWNg2NpMSXeGEMVHe7Kw-11" edge="1">
          <mxGeometry relative="1" as="geometry" />
        </mxCell>
        <mxCell id="oWNg2NpMSXeGEMVHe7Kw-56" style="edgeStyle=orthogonalEdgeStyle;rounded=0;orthogonalLoop=1;jettySize=auto;html=1;exitX=0.5;exitY=1;exitDx=0;exitDy=0;entryX=0.5;entryY=0;entryDx=0;entryDy=0;shape=flexArrow;" parent="1" source="oWNg2NpMSXeGEMVHe7Kw-13" target="oWNg2NpMSXeGEMVHe7Kw-51" edge="1">
          <mxGeometry relative="1" as="geometry" />
        </mxCell>
        <mxCell id="oWNg2NpMSXeGEMVHe7Kw-13" value="模型分析" style="rounded=0;whiteSpace=wrap;html=1;fixDash=0;" parent="1" vertex="1">
          <mxGeometry x="350" y="220" width="120" height="30" as="geometry" />
        </mxCell>
        <mxCell id="oWNg2NpMSXeGEMVHe7Kw-14" value="" style="edgeStyle=orthogonalEdgeStyle;rounded=0;orthogonalLoop=1;jettySize=auto;html=1;fixDash=0;" parent="1" source="oWNg2NpMSXeGEMVHe7Kw-11" target="oWNg2NpMSXeGEMVHe7Kw-13" edge="1">
          <mxGeometry relative="1" as="geometry" />
        </mxCell>
        <mxCell id="oWNg2NpMSXeGEMVHe7Kw-59" value="" style="edgeStyle=orthogonalEdgeStyle;rounded=0;orthogonalLoop=1;jettySize=auto;html=1;shape=flexArrow;" parent="1" source="oWNg2NpMSXeGEMVHe7Kw-15" target="oWNg2NpMSXeGEMVHe7Kw-52" edge="1">
          <mxGeometry relative="1" as="geometry" />
        </mxCell>
        <mxCell id="oWNg2NpMSXeGEMVHe7Kw-15" value="仿真分析" style="rounded=0;whiteSpace=wrap;html=1;fixDash=0;" parent="1" vertex="1">
          <mxGeometry x="510" y="220" width="120" height="30" as="geometry" />
        </mxCell>
        <mxCell id="oWNg2NpMSXeGEMVHe7Kw-16" value="" style="edgeStyle=orthogonalEdgeStyle;rounded=0;orthogonalLoop=1;jettySize=auto;html=1;fixDash=0;" parent="1" source="oWNg2NpMSXeGEMVHe7Kw-13" target="oWNg2NpMSXeGEMVHe7Kw-15" edge="1">
          <mxGeometry relative="1" as="geometry" />
        </mxCell>
        <mxCell id="oWNg2NpMSXeGEMVHe7Kw-17" value="总结与展望" style="rounded=0;whiteSpace=wrap;html=1;fixDash=0;" parent="1" vertex="1">
          <mxGeometry x="670" y="220" width="120" height="30" as="geometry" />
        </mxCell>
        <mxCell id="oWNg2NpMSXeGEMVHe7Kw-18" value="" style="edgeStyle=orthogonalEdgeStyle;rounded=0;orthogonalLoop=1;jettySize=auto;html=1;fixDash=0;" parent="1" source="oWNg2NpMSXeGEMVHe7Kw-15" target="oWNg2NpMSXeGEMVHe7Kw-17" edge="1">
          <mxGeometry relative="1" as="geometry" />
        </mxCell>
        <mxCell id="oWNg2NpMSXeGEMVHe7Kw-21" value="理论基础与文献综述" style="rounded=0;whiteSpace=wrap;html=1;" parent="1" vertex="1">
          <mxGeometry x="30" y="360" width="120" height="30" as="geometry" />
        </mxCell>
        <mxCell id="oWNg2NpMSXeGEMVHe7Kw-22" value="" style="edgeStyle=orthogonalEdgeStyle;rounded=0;orthogonalLoop=1;jettySize=auto;html=1;" parent="1" source="oWNg2NpMSXeGEMVHe7Kw-20" target="oWNg2NpMSXeGEMVHe7Kw-21" edge="1">
          <mxGeometry relative="1" as="geometry" />
        </mxCell>
        <mxCell id="oWNg2NpMSXeGEMVHe7Kw-29" value="" style="edgeStyle=orthogonalEdgeStyle;rounded=0;orthogonalLoop=1;jettySize=auto;html=1;" parent="1" source="oWNg2NpMSXeGEMVHe7Kw-23" target="oWNg2NpMSXeGEMVHe7Kw-28" edge="1">
          <mxGeometry relative="1" as="geometry" />
        </mxCell>
        <mxCell id="oWNg2NpMSXeGEMVHe7Kw-23" value="&amp;nbsp;设定主体" style="rounded=0;whiteSpace=wrap;html=1;" parent="1" vertex="1">
          <mxGeometry x="190" y="300" width="120" height="30" as="geometry" />
        </mxCell>
        <mxCell id="oWNg2NpMSXeGEMVHe7Kw-31" value="" style="edgeStyle=orthogonalEdgeStyle;rounded=0;orthogonalLoop=1;jettySize=auto;html=1;" parent="1" source="oWNg2NpMSXeGEMVHe7Kw-28" target="oWNg2NpMSXeGEMVHe7Kw-30" edge="1">
          <mxGeometry relative="1" as="geometry" />
        </mxCell>
        <mxCell id="oWNg2NpMSXeGEMVHe7Kw-28" value="&amp;nbsp;主体之间的逻辑" style="rounded=0;whiteSpace=wrap;html=1;" parent="1" vertex="1">
          <mxGeometry x="190" y="360" width="120" height="30" as="geometry" />
        </mxCell>
        <mxCell id="oWNg2NpMSXeGEMVHe7Kw-33" value="" style="edgeStyle=orthogonalEdgeStyle;rounded=0;orthogonalLoop=1;jettySize=auto;html=1;" parent="1" source="oWNg2NpMSXeGEMVHe7Kw-30" target="oWNg2NpMSXeGEMVHe7Kw-32" edge="1">
          <mxGeometry relative="1" as="geometry" />
        </mxCell>
        <mxCell id="oWNg2NpMSXeGEMVHe7Kw-30" value="&amp;nbsp;博弈假设(参数设定)" style="rounded=0;whiteSpace=wrap;html=1;" parent="1" vertex="1">
          <mxGeometry x="190" y="420" width="120" height="30" as="geometry" />
        </mxCell>
        <mxCell id="oWNg2NpMSXeGEMVHe7Kw-32" value="&amp;nbsp;构建博弈矩阵" style="rounded=0;whiteSpace=wrap;html=1;" parent="1" vertex="1">
          <mxGeometry x="190" y="480" width="120" height="30" as="geometry" />
        </mxCell>
        <mxCell id="oWNg2NpMSXeGEMVHe7Kw-40" value="" style="edgeStyle=orthogonalEdgeStyle;rounded=0;orthogonalLoop=1;jettySize=auto;html=1;" parent="1" source="oWNg2NpMSXeGEMVHe7Kw-37" target="oWNg2NpMSXeGEMVHe7Kw-39" edge="1">
          <mxGeometry relative="1" as="geometry" />
        </mxCell>
        <mxCell id="oWNg2NpMSXeGEMVHe7Kw-37" value="复制动态方程" style="rounded=0;whiteSpace=wrap;html=1;" parent="1" vertex="1">
          <mxGeometry x="350" y="300" width="120" height="30" as="geometry" />
        </mxCell>
        <mxCell id="oWNg2NpMSXeGEMVHe7Kw-42" value="" style="edgeStyle=orthogonalEdgeStyle;rounded=0;orthogonalLoop=1;jettySize=auto;html=1;" parent="1" source="oWNg2NpMSXeGEMVHe7Kw-39" target="oWNg2NpMSXeGEMVHe7Kw-41" edge="1">
          <mxGeometry relative="1" as="geometry" />
        </mxCell>
        <mxCell id="oWNg2NpMSXeGEMVHe7Kw-39" value="&amp;nbsp;均衡点稳定性分析" style="rounded=0;whiteSpace=wrap;html=1;" parent="1" vertex="1">
          <mxGeometry x="350" y="360" width="120" height="30" as="geometry" />
        </mxCell>
        <mxCell id="oWNg2NpMSXeGEMVHe7Kw-41" value="雅可比矩阵" style="rounded=0;whiteSpace=wrap;html=1;" parent="1" vertex="1">
          <mxGeometry x="350" y="420" width="120" height="30" as="geometry" />
        </mxCell>
        <mxCell id="oWNg2NpMSXeGEMVHe7Kw-45" value="" style="edgeStyle=orthogonalEdgeStyle;rounded=0;orthogonalLoop=1;jettySize=auto;html=1;" parent="1" source="oWNg2NpMSXeGEMVHe7Kw-43" target="oWNg2NpMSXeGEMVHe7Kw-44" edge="1">
          <mxGeometry relative="1" as="geometry" />
        </mxCell>
        <mxCell id="oWNg2NpMSXeGEMVHe7Kw-43" value="主体初始值变化" style="rounded=0;whiteSpace=wrap;html=1;" parent="1" vertex="1">
          <mxGeometry x="510" y="300" width="120" height="30" as="geometry" />
        </mxCell>
        <mxCell id="oWNg2NpMSXeGEMVHe7Kw-47" value="" style="edgeStyle=orthogonalEdgeStyle;rounded=0;orthogonalLoop=1;jettySize=auto;html=1;" parent="1" source="oWNg2NpMSXeGEMVHe7Kw-44" target="oWNg2NpMSXeGEMVHe7Kw-46" edge="1">
          <mxGeometry relative="1" as="geometry" />
        </mxCell>
        <mxCell id="oWNg2NpMSXeGEMVHe7Kw-44" value="前景理论参数、成本收益等参数变化" style="rounded=0;whiteSpace=wrap;html=1;" parent="1" vertex="1">
          <mxGeometry x="510" y="360" width="120" height="40" as="geometry" />
        </mxCell>
        <mxCell id="oWNg2NpMSXeGEMVHe7Kw-46" value="图象显示" style="rounded=0;whiteSpace=wrap;html=1;" parent="1" vertex="1">
          <mxGeometry x="510" y="420" width="120" height="30" as="geometry" />
        </mxCell>
        <mxCell id="oWNg2NpMSXeGEMVHe7Kw-50" value="" style="rounded=0;whiteSpace=wrap;html=1;dashed=1;fillColor=none;" parent="1" vertex="1">
          <mxGeometry x="180" y="290" width="140" height="240" as="geometry" />
        </mxCell>
        <mxCell id="oWNg2NpMSXeGEMVHe7Kw-51" value="" style="rounded=0;whiteSpace=wrap;html=1;dashed=1;fillColor=none;" parent="1" vertex="1">
          <mxGeometry x="340" y="290" width="140" height="180" as="geometry" />
        </mxCell>
        <mxCell id="oWNg2NpMSXeGEMVHe7Kw-52" value="" style="rounded=0;whiteSpace=wrap;html=1;dashed=1;fillColor=none;" parent="1" vertex="1">
          <mxGeometry x="500" y="290" width="140" height="180" as="geometry" />
        </mxCell>
        <mxCell id="w5wcLQVq9njS0NMlmDPP-1" value="&lt;font style=&quot;font-size: 15px;&quot;&gt;网民&lt;/font&gt;" style="rounded=0;whiteSpace=wrap;html=1;fontSize=15;fontStyle=2" vertex="1" parent="1">
          <mxGeometry x="330" y="620" width="120" height="60" as="geometry" />
        </mxCell>
        <mxCell id="w5wcLQVq9njS0NMlmDPP-4" value="" style="endArrow=none;html=1;rounded=0;exitX=0.5;exitY=0;exitDx=0;exitDy=0;entryX=0.25;entryY=1;entryDx=0;entryDy=0;fontSize=15;fontStyle=2" edge="1" parent="1" source="w5wcLQVq9njS0NMlmDPP-5" target="w5wcLQVq9njS0NMlmDPP-1">
          <mxGeometry width="50" height="50" relative="1" as="geometry">
            <mxPoint x="250" y="770" as="sourcePoint" />
            <mxPoint x="330" y="680" as="targetPoint" />
          </mxGeometry>
        </mxCell>
        <mxCell id="w5wcLQVq9njS0NMlmDPP-5" value="网络运营商" style="rounded=0;whiteSpace=wrap;html=1;fontSize=15;fontStyle=2" vertex="1" parent="1">
          <mxGeometry x="180" y="740" width="120" height="60" as="geometry" />
        </mxCell>
        <mxCell id="w5wcLQVq9njS0NMlmDPP-6" value="网络运营商" style="rounded=0;whiteSpace=wrap;html=1;fontSize=15;fontStyle=2" vertex="1" parent="1">
          <mxGeometry x="470" y="740" width="120" height="60" as="geometry" />
        </mxCell>
        <mxCell id="w5wcLQVq9njS0NMlmDPP-7" value="" style="endArrow=none;html=1;rounded=0;exitX=0.5;exitY=0;exitDx=0;exitDy=0;entryX=0.75;entryY=1;entryDx=0;entryDy=0;fontSize=15;fontStyle=2" edge="1" parent="1" source="w5wcLQVq9njS0NMlmDPP-6" target="w5wcLQVq9njS0NMlmDPP-1">
          <mxGeometry width="50" height="50" relative="1" as="geometry">
            <mxPoint x="370" y="770" as="sourcePoint" />
            <mxPoint x="450" y="680" as="targetPoint" />
          </mxGeometry>
        </mxCell>
        <mxCell id="w5wcLQVq9njS0NMlmDPP-8" value="传播" style="text;html=1;align=center;verticalAlign=middle;resizable=0;points=[];autosize=1;strokeColor=none;fillColor=none;fontSize=15;fontStyle=2" vertex="1" parent="1">
          <mxGeometry x="250" y="690" width="50" height="30" as="geometry" />
        </mxCell>
        <mxCell id="w5wcLQVq9njS0NMlmDPP-9" value="不传播" style="text;html=1;align=center;verticalAlign=middle;resizable=0;points=[];autosize=1;strokeColor=none;fillColor=none;fontSize=15;fontStyle=2" vertex="1" parent="1">
          <mxGeometry x="455" y="690" width="70" height="30" as="geometry" />
        </mxCell>
        <mxCell id="w5wcLQVq9njS0NMlmDPP-10" value="政府" style="rounded=0;whiteSpace=wrap;html=1;fontSize=15;fontStyle=2" vertex="1" parent="1">
          <mxGeometry x="80" y="880" width="120" height="60" as="geometry" />
        </mxCell>
        <mxCell id="w5wcLQVq9njS0NMlmDPP-11" value="政府" style="rounded=0;whiteSpace=wrap;html=1;fontSize=15;fontStyle=2" vertex="1" parent="1">
          <mxGeometry x="250" y="880" width="120" height="60" as="geometry" />
        </mxCell>
        <mxCell id="w5wcLQVq9njS0NMlmDPP-12" value="政府" style="rounded=0;whiteSpace=wrap;html=1;fontSize=15;fontStyle=2" vertex="1" parent="1">
          <mxGeometry x="410" y="880" width="120" height="60" as="geometry" />
        </mxCell>
        <mxCell id="w5wcLQVq9njS0NMlmDPP-13" value="政府" style="rounded=0;whiteSpace=wrap;html=1;fontSize=15;fontStyle=2" vertex="1" parent="1">
          <mxGeometry x="580" y="880" width="120" height="60" as="geometry" />
        </mxCell>
        <mxCell id="w5wcLQVq9njS0NMlmDPP-14" value="" style="endArrow=none;html=1;rounded=0;exitX=0.5;exitY=0;exitDx=0;exitDy=0;entryX=0.25;entryY=1;entryDx=0;entryDy=0;fontSize=15;fontStyle=2" edge="1" parent="1" source="w5wcLQVq9njS0NMlmDPP-10" target="w5wcLQVq9njS0NMlmDPP-5">
          <mxGeometry width="50" height="50" relative="1" as="geometry">
            <mxPoint x="110" y="890" as="sourcePoint" />
            <mxPoint x="200" y="800" as="targetPoint" />
          </mxGeometry>
        </mxCell>
        <mxCell id="w5wcLQVq9njS0NMlmDPP-15" value="" style="endArrow=none;html=1;rounded=0;exitX=0.5;exitY=0;exitDx=0;exitDy=0;fontSize=15;fontStyle=2" edge="1" parent="1">
          <mxGeometry width="50" height="50" relative="1" as="geometry">
            <mxPoint x="470" y="880" as="sourcePoint" />
            <mxPoint x="530" y="800" as="targetPoint" />
          </mxGeometry>
        </mxCell>
        <mxCell id="w5wcLQVq9njS0NMlmDPP-16" value="" style="endArrow=none;html=1;rounded=0;entryX=1;entryY=1;entryDx=0;entryDy=0;exitX=0.5;exitY=0;exitDx=0;exitDy=0;fontSize=15;fontStyle=2" edge="1" parent="1" source="w5wcLQVq9njS0NMlmDPP-11">
          <mxGeometry width="50" height="50" relative="1" as="geometry">
            <mxPoint x="350" y="890" as="sourcePoint" />
            <mxPoint x="270" y="800" as="targetPoint" />
          </mxGeometry>
        </mxCell>
        <mxCell id="w5wcLQVq9njS0NMlmDPP-17" value="" style="endArrow=none;html=1;rounded=0;entryX=1;entryY=1;entryDx=0;entryDy=0;exitX=0.5;exitY=0;exitDx=0;exitDy=0;fontSize=15;fontStyle=2" edge="1" parent="1">
          <mxGeometry width="50" height="50" relative="1" as="geometry">
            <mxPoint x="610" y="880" as="sourcePoint" />
            <mxPoint x="570" y="800" as="targetPoint" />
          </mxGeometry>
        </mxCell>
        <mxCell id="w5wcLQVq9njS0NMlmDPP-19" value="1" style="whiteSpace=wrap;html=1;fontSize=15;fontStyle=2" vertex="1" parent="1">
          <mxGeometry x="30" y="990" width="60" height="50" as="geometry" />
        </mxCell>
        <mxCell id="w5wcLQVq9njS0NMlmDPP-20" value="2" style="whiteSpace=wrap;html=1;fontSize=15;fontStyle=2" vertex="1" parent="1">
          <mxGeometry x="120" y="990" width="60" height="50" as="geometry" />
        </mxCell>
        <mxCell id="w5wcLQVq9njS0NMlmDPP-21" value="3" style="whiteSpace=wrap;html=1;fontSize=15;fontStyle=2" vertex="1" parent="1">
          <mxGeometry x="220" y="990" width="60" height="50" as="geometry" />
        </mxCell>
        <mxCell id="w5wcLQVq9njS0NMlmDPP-22" value="4" style="whiteSpace=wrap;html=1;fontSize=15;fontStyle=2" vertex="1" parent="1">
          <mxGeometry x="310" y="990" width="60" height="50" as="geometry" />
        </mxCell>
        <mxCell id="w5wcLQVq9njS0NMlmDPP-23" value="5" style="whiteSpace=wrap;html=1;fontSize=15;fontStyle=2" vertex="1" parent="1">
          <mxGeometry x="400" y="990" width="60" height="50" as="geometry" />
        </mxCell>
        <mxCell id="w5wcLQVq9njS0NMlmDPP-24" value="6" style="whiteSpace=wrap;html=1;fontSize=15;fontStyle=2" vertex="1" parent="1">
          <mxGeometry x="480" y="990" width="60" height="50" as="geometry" />
        </mxCell>
        <mxCell id="w5wcLQVq9njS0NMlmDPP-25" value="7" style="whiteSpace=wrap;html=1;fontSize=15;fontStyle=2" vertex="1" parent="1">
          <mxGeometry x="570" y="990" width="60" height="50" as="geometry" />
        </mxCell>
        <mxCell id="w5wcLQVq9njS0NMlmDPP-26" value="8" style="whiteSpace=wrap;html=1;fontSize=15;fontStyle=2" vertex="1" parent="1">
          <mxGeometry x="660" y="990" width="60" height="50" as="geometry" />
        </mxCell>
        <mxCell id="w5wcLQVq9njS0NMlmDPP-27" value="" style="endArrow=none;html=1;rounded=0;fontSize=15;fontStyle=2" edge="1" parent="1">
          <mxGeometry width="50" height="50" relative="1" as="geometry">
            <mxPoint x="70" y="990" as="sourcePoint" />
            <mxPoint x="120" y="940" as="targetPoint" />
          </mxGeometry>
        </mxCell>
        <mxCell id="w5wcLQVq9njS0NMlmDPP-28" value="" style="endArrow=none;html=1;rounded=0;fontSize=15;fontStyle=2" edge="1" parent="1">
          <mxGeometry width="50" height="50" relative="1" as="geometry">
            <mxPoint x="250" y="990" as="sourcePoint" />
            <mxPoint x="300" y="940" as="targetPoint" />
          </mxGeometry>
        </mxCell>
        <mxCell id="w5wcLQVq9njS0NMlmDPP-29" value="" style="endArrow=none;html=1;rounded=0;fontSize=15;fontStyle=2" edge="1" parent="1">
          <mxGeometry width="50" height="50" relative="1" as="geometry">
            <mxPoint x="420" y="990" as="sourcePoint" />
            <mxPoint x="470" y="940" as="targetPoint" />
          </mxGeometry>
        </mxCell>
        <mxCell id="w5wcLQVq9njS0NMlmDPP-30" value="" style="endArrow=none;html=1;rounded=0;fontSize=15;fontStyle=2" edge="1" parent="1">
          <mxGeometry width="50" height="50" relative="1" as="geometry">
            <mxPoint x="600" y="990" as="sourcePoint" />
            <mxPoint x="650" y="940" as="targetPoint" />
          </mxGeometry>
        </mxCell>
        <mxCell id="w5wcLQVq9njS0NMlmDPP-32" value="" style="endArrow=none;html=1;rounded=0;entryX=0.5;entryY=1;entryDx=0;entryDy=0;fontSize=15;fontStyle=2" edge="1" parent="1" source="w5wcLQVq9njS0NMlmDPP-20" target="w5wcLQVq9njS0NMlmDPP-10">
          <mxGeometry width="50" height="50" relative="1" as="geometry">
            <mxPoint x="120" y="990" as="sourcePoint" />
            <mxPoint x="170" y="940" as="targetPoint" />
          </mxGeometry>
        </mxCell>
        <mxCell id="w5wcLQVq9njS0NMlmDPP-33" value="" style="endArrow=none;html=1;rounded=0;entryX=0.5;entryY=1;entryDx=0;entryDy=0;fontSize=15;fontStyle=2" edge="1" parent="1">
          <mxGeometry width="50" height="50" relative="1" as="geometry">
            <mxPoint x="340" y="990" as="sourcePoint" />
            <mxPoint x="333" y="940" as="targetPoint" />
          </mxGeometry>
        </mxCell>
        <mxCell id="w5wcLQVq9njS0NMlmDPP-34" value="" style="endArrow=none;html=1;rounded=0;entryX=0.5;entryY=1;entryDx=0;entryDy=0;fontSize=15;fontStyle=2" edge="1" parent="1">
          <mxGeometry width="50" height="50" relative="1" as="geometry">
            <mxPoint x="500" y="990" as="sourcePoint" />
            <mxPoint x="493" y="940" as="targetPoint" />
          </mxGeometry>
        </mxCell>
        <mxCell id="w5wcLQVq9njS0NMlmDPP-35" value="" style="endArrow=none;html=1;rounded=0;entryX=0.5;entryY=1;entryDx=0;entryDy=0;fontSize=15;fontStyle=2" edge="1" parent="1">
          <mxGeometry width="50" height="50" relative="1" as="geometry">
            <mxPoint x="687" y="990" as="sourcePoint" />
            <mxPoint x="680" y="940" as="targetPoint" />
          </mxGeometry>
        </mxCell>
        <mxCell id="w5wcLQVq9njS0NMlmDPP-36" value="监管" style="text;html=1;align=center;verticalAlign=middle;resizable=0;points=[];autosize=1;strokeColor=none;fillColor=none;fontSize=15;fontStyle=2" vertex="1" parent="1">
          <mxGeometry x="135" y="818" width="50" height="30" as="geometry" />
        </mxCell>
        <mxCell id="w5wcLQVq9njS0NMlmDPP-37" value="不监管" style="text;html=1;align=center;verticalAlign=middle;resizable=0;points=[];autosize=1;strokeColor=none;fillColor=none;fontSize=15;fontStyle=2" vertex="1" parent="1">
          <mxGeometry x="285" y="818" width="70" height="30" as="geometry" />
        </mxCell>
        <mxCell id="w5wcLQVq9njS0NMlmDPP-38" value="监管" style="text;html=1;align=center;verticalAlign=middle;resizable=0;points=[];autosize=1;strokeColor=none;fillColor=none;fontSize=15;fontStyle=2" vertex="1" parent="1">
          <mxGeometry x="450" y="818" width="50" height="30" as="geometry" />
        </mxCell>
        <mxCell id="w5wcLQVq9njS0NMlmDPP-39" value="不监管" style="text;html=1;align=center;verticalAlign=middle;resizable=0;points=[];autosize=1;strokeColor=none;fillColor=none;fontSize=15;fontStyle=2" vertex="1" parent="1">
          <mxGeometry x="585" y="818" width="70" height="30" as="geometry" />
        </mxCell>
        <mxCell id="w5wcLQVq9njS0NMlmDPP-40" value="管控" style="text;html=1;align=center;verticalAlign=middle;resizable=0;points=[];autosize=1;strokeColor=none;fillColor=none;fontSize=15;fontStyle=2" vertex="1" parent="1">
          <mxGeometry x="55" y="948" width="50" height="30" as="geometry" />
        </mxCell>
        <mxCell id="w5wcLQVq9njS0NMlmDPP-41" value="不管控" style="text;html=1;align=center;verticalAlign=middle;resizable=0;points=[];autosize=1;strokeColor=none;fillColor=none;fontSize=15;fontStyle=2" vertex="1" parent="1">
          <mxGeometry x="125" y="948" width="70" height="30" as="geometry" />
        </mxCell>
        <mxCell id="w5wcLQVq9njS0NMlmDPP-42" value="管控" style="text;html=1;align=center;verticalAlign=middle;resizable=0;points=[];autosize=1;strokeColor=none;fillColor=none;fontSize=15;fontStyle=2" vertex="1" parent="1">
          <mxGeometry x="230" y="948" width="50" height="30" as="geometry" />
        </mxCell>
        <mxCell id="w5wcLQVq9njS0NMlmDPP-43" value="管控" style="text;html=1;align=center;verticalAlign=middle;resizable=0;points=[];autosize=1;strokeColor=none;fillColor=none;fontSize=15;fontStyle=2" vertex="1" parent="1">
          <mxGeometry x="575" y="948" width="50" height="30" as="geometry" />
        </mxCell>
        <mxCell id="w5wcLQVq9njS0NMlmDPP-44" value="管控" style="text;html=1;align=center;verticalAlign=middle;resizable=0;points=[];autosize=1;strokeColor=none;fillColor=none;fontSize=15;fontStyle=2" vertex="1" parent="1">
          <mxGeometry x="389" y="948" width="50" height="30" as="geometry" />
        </mxCell>
        <mxCell id="w5wcLQVq9njS0NMlmDPP-45" value="不管控" style="text;html=1;align=center;verticalAlign=middle;resizable=0;points=[];autosize=1;strokeColor=none;fillColor=none;fontSize=15;fontStyle=2" vertex="1" parent="1">
          <mxGeometry x="665" y="948" width="70" height="30" as="geometry" />
        </mxCell>
        <mxCell id="w5wcLQVq9njS0NMlmDPP-46" value="不管控" style="text;html=1;align=center;verticalAlign=middle;resizable=0;points=[];autosize=1;strokeColor=none;fillColor=none;fontSize=15;fontStyle=2" vertex="1" parent="1">
          <mxGeometry x="485" y="948" width="70" height="30" as="geometry" />
        </mxCell>
        <mxCell id="w5wcLQVq9njS0NMlmDPP-47" value="不管控" style="text;html=1;align=center;verticalAlign=middle;resizable=0;points=[];autosize=1;strokeColor=none;fillColor=none;fontSize=15;fontStyle=2" vertex="1" parent="1">
          <mxGeometry x="305" y="948" width="70" height="30" as="geometry" />
        </mxCell>
      </root>
    </mxGraphModel>
  </diagram>
</mxfile>
